<svg width="18" height="18" viewBox="0 0 18 18" fill="none" xmlns="http://www.w3.org/2000/svg">
<path fill-rule="evenodd" clip-rule="evenodd" d="M17.64 9.2081C17.64 8.56991 17.5827 7.95628 17.4764 7.36719H9V10.8486H13.8436C13.635 11.9736 13.0009 12.9267 12.0477 13.5649V15.8231H14.9564C16.6582 14.2563 17.64 11.949 17.64 9.2081Z" fill="#4285F4"/>
<path fill-rule="evenodd" clip-rule="evenodd" d="M9 18.0009C11.43 18.0009 13.4673 17.195 14.9564 15.8205L12.0477 13.5623C11.2418 14.1023 10.2109 14.4214 9 14.4214C6.65591 14.4214 4.67182 12.8382 3.96409 10.7109H0.957275V13.0428C2.43818 15.9841 5.48182 18.0009 9 18.0009Z" fill="#34A853"/>
<path fill-rule="evenodd" clip-rule="evenodd" d="M3.96409 10.7128C3.78409 10.1728 3.68182 9.59594 3.68182 9.00276C3.68182 8.40957 3.78409 7.83276 3.96409 7.29276V4.96094H0.957273C0.347727 6.17594 0 7.55048 0 9.00276C0 10.455 0.347727 11.8296 0.957273 13.0446L3.96409 10.7128Z" fill="#FBBC05"/>
<path fill-rule="evenodd" clip-rule="evenodd" d="M9 3.57955C10.3214 3.57955 11.5077 4.03364 12.4405 4.92545L15.0218 2.34409C13.4632 0.891818 11.4259 0 9 0C5.48182 0 2.43818 2.01682 0.957275 4.95818L3.96409 7.29C4.67182 5.16273 6.65591 3.57955 9 3.57955Z" fill="#EA4335"/>
</svg>
